<svg width="40" height="40" viewBox="0 0 40 40" fill="none" xmlns="http://www.w3.org/2000/svg">
<circle cx="20" cy="20" r="20" fill="black"/>
<path d="M25.5235 27.5101C24.5163 28.4865 23.4166 28.3323 22.358 27.8698C21.2377 27.3971 20.2099 27.3765 19.028 27.8698C17.548 28.5071 16.7668 28.3221 15.883 27.5101C10.8674 22.3404 11.6074 14.4676 17.3013 14.1798C18.6888 14.2518 19.6549 14.9404 20.4668 15.0021C21.6796 14.7554 22.841 14.0462 24.136 14.1387C25.688 14.2621 26.8596 14.8787 27.6305 15.9887C24.4238 17.9107 25.1843 22.1348 28.1238 23.3168C27.538 24.8585 26.7774 26.3898 25.5132 27.5204L25.5235 27.5101ZM20.3641 14.1182C20.2099 11.8262 22.0702 9.93512 24.208 9.75012C24.506 12.4018 21.803 14.3751 20.3641 14.1182Z" fill="white"/>
</svg>
