<svg width="25" height="20" viewBox="0 0 25 20" fill="none" xmlns="http://www.w3.org/2000/svg">
<path fill-rule="evenodd" clip-rule="evenodd" d="M13.2321 0.388732C13.1499 0.268714 13.0403 0.170699 12.9129 0.103021C12.7854 0.0353417 12.6438 0 12.5 0C12.3562 0 12.2146 0.0353417 12.0871 0.103021C11.9597 0.170699 11.8501 0.268714 11.7679 0.388732L6.12857 8.59176L1.525 3.90302C1.40013 3.77556 1.24089 3.68872 1.06748 3.65351C0.894077 3.6183 0.714305 3.6363 0.55096 3.70524C0.387614 3.77418 0.248052 3.89094 0.149965 4.04073C0.0518786 4.19051 -0.000314937 4.36658 1.42973e-06 4.5466V16.3639C1.42973e-06 17.3283 0.376276 18.2531 1.04605 18.935C1.71582 19.6169 2.62423 20 3.57143 20H21.4286C22.3758 20 23.2842 19.6169 23.954 18.935C24.6237 18.2531 25 17.3283 25 16.3639V4.5466C25.0003 4.36658 24.9481 4.19051 24.85 4.04073C24.7519 3.89094 24.6124 3.77418 24.449 3.70524C24.2857 3.6363 24.1059 3.6183 23.9325 3.65351C23.7591 3.68872 23.5999 3.77556 23.475 3.90302L18.8714 8.59176L13.2321 0.388732Z" fill="#FDD61B"/>
</svg>
