<svg width="23" height="23" viewBox="0 0 23 23" fill="none" xmlns="http://www.w3.org/2000/svg">
<path d="M15.6024 0.00173946C15.2624 -0.00770157 14.9176 0.0211864 14.5766 0.090905C13.6675 0.276821 12.9186 0.731203 12.464 1.35092L11.5014 2.69365C11.2875 2.98285 11.4211 3.37567 11.7955 3.54093L16.4219 5.60666C16.5556 5.66863 16.6893 5.68897 16.823 5.68897C16.9032 5.68897 16.9564 5.68905 17.0366 5.66839C17.2505 5.62708 17.4112 5.52371 17.5181 5.37911L18.5073 4.03638C18.9619 3.41666 19.0958 2.69397 18.8552 1.99162C18.6145 1.28927 18.0263 0.710787 17.2241 0.359612C16.7227 0.140128 16.1691 0.0174746 15.6024 0.00173946ZM10.4579 4.64117C10.1989 4.6565 9.95027 4.76463 9.81657 4.94538L1.74105 15.7699C0.83186 16.968 0.323994 18.3109 0.21703 19.6742L0.00289502 22.3391C-0.0238458 22.5664 0.136599 22.7933 0.404007 22.9173C0.537711 22.9793 0.671415 23 0.80512 23C0.965564 23 1.1258 22.9587 1.2595 22.8967L4.14772 21.4301C5.61847 20.6658 6.87529 19.6535 7.75773 18.4554L15.8604 7.63084C16.0743 7.34164 15.9402 6.94923 15.5658 6.78397C15.1915 6.61871 14.6835 6.72192 14.4696 7.01112L6.36742 17.8357C5.59194 18.8479 4.52199 19.7362 3.23843 20.3973L1.68778 21.182L1.79432 19.757C1.87454 18.5795 2.32924 17.4225 3.10473 16.3896L11.2074 5.56511C11.4213 5.2759 11.2877 4.88349 10.9134 4.71823C10.773 4.65626 10.6134 4.63197 10.4579 4.64117ZM7.49032 21.7606C7.03573 21.7606 6.6881 22.0291 6.6881 22.3803C6.6881 22.7315 7.03573 23 7.49032 23H18.1867C18.6412 23 18.9889 22.7315 18.9889 22.3803C18.9889 22.0291 18.6412 21.7606 18.1867 21.7606H7.49032ZM22.1978 21.7606C21.985 21.7606 21.781 21.8258 21.6305 21.9421C21.4801 22.0583 21.3956 22.2159 21.3956 22.3803C21.3956 22.5446 21.4801 22.7023 21.6305 22.8185C21.781 22.9347 21.985 23 22.1978 23C22.4105 23 22.6146 22.9347 22.765 22.8185C22.9155 22.7023 23 22.5446 23 22.3803C23 22.2159 22.9155 22.0583 22.765 21.9421C22.6146 21.8258 22.4105 21.7606 22.1978 21.7606Z" fill="black"/>
</svg>
