<svg width="70" height="70" viewBox="0 0 70 70" fill="none" xmlns="http://www.w3.org/2000/svg">
<path d="M0 0H70V70H0V0Z" fill="white" fill-opacity="0.9"/>
<path d="M45.7833 35.4133C46.9901 35.4133 48.1474 35.8853 49.0007 36.7255C49.854 37.5657 50.3333 38.7052 50.3333 39.8933V41.3867C50.3333 47.2734 44.6913 53.3333 35.1667 53.3333C25.642 53.3333 20 47.2734 20 41.3867V39.8933C20 38.7052 20.4794 37.5657 21.3327 36.7255C22.186 35.8853 23.3433 35.4133 24.55 35.4133H45.7833ZM35.1667 16C37.379 16 39.5008 16.8653 41.0651 18.4056C42.6295 19.9459 43.5083 22.035 43.5083 24.2133C43.5083 26.3916 42.6295 28.4807 41.0651 30.021C39.5008 31.5613 37.379 32.4267 35.1667 32.4267C32.9543 32.4267 30.8326 31.5613 29.2682 30.021C27.7039 28.4807 26.825 26.3916 26.825 24.2133C26.825 22.035 27.7039 19.9459 29.2682 18.4056C30.8326 16.8653 32.9543 16 35.1667 16Z" fill="#D2D5DB"/>
</svg>
