<svg width="269" height="49" fill="none" xmlns="http://www.w3.org/2000/svg"><g clip-path="url(#a)"><path d="M263.655 0H5.476C2.488 0 .066 1.969.066 4.397v40.206C.065 47.03 2.487 49 5.475 49h258.179c2.988 0 5.41-1.969 5.41-4.397V4.397c0-2.428-2.422-4.397-5.41-4.397Z" fill="#fff"/><mask id="b" style="mask-type:luminance" maskUnits="userSpaceOnUse" x="56" y="14" width="21" height="20"><path d="M76.718 14h-20.68v20h20.68V14Z" fill="#fff"/></mask><g mask="url(#b)"><path d="M76.305 24.227c0-.709-.066-1.39-.188-2.045h-9.739v3.868h5.565c-.24 1.25-.968 2.31-2.063 3.018v2.51h3.342c1.955-1.742 3.083-4.305 3.083-7.35Z" fill="#4285F4"/><path d="M66.378 34c2.792 0 5.133-.895 6.843-2.423l-3.341-2.509c-.926.6-2.11.955-3.502.955-2.693 0-4.972-1.76-5.785-4.123h-3.455v2.59c1.702 3.27 5.199 5.51 9.24 5.51Z" fill="#34A853"/><path d="M60.593 25.9a5.832 5.832 0 0 1-.325-1.9c0-.66.118-1.3.325-1.9v-2.59h-3.455a9.73 9.73 0 0 0 0 8.98l3.455-2.59Z" fill="#FBBC04"/><path d="M66.378 17.977c1.518 0 2.881.505 3.953 1.496l2.966-2.868C71.506 14.99 69.165 14 66.378 14c-4.041 0-7.538 2.24-9.24 5.51l3.455 2.59c.813-2.364 3.092-4.123 5.785-4.123Z" fill="#E94235"/></g><path d="M93.518 26.436a1.42 1.42 0 0 0-.099-.546 1.07 1.07 0 0 0-.332-.438 2.768 2.768 0 0 0-.679-.383 9.205 9.205 0 0 0-1.102-.39c-.49-.145-.943-.307-1.357-.485a5.199 5.199 0 0 1-1.075-.629 2.713 2.713 0 0 1-.714-.827 2.253 2.253 0 0 1-.254-1.087c0-.405.087-.774.261-1.107.18-.333.432-.62.757-.861.33-.247.718-.436 1.166-.568a5.068 5.068 0 0 1 1.484-.205c.764 0 1.421.137 1.972.41.556.274.983.64 1.28 1.1.301.461.452.97.452 1.525h-1.76c0-.328-.073-.617-.22-.868a1.464 1.464 0 0 0-.65-.601c-.287-.146-.652-.22-1.095-.22-.42 0-.768.062-1.046.185s-.485.29-.622.5c-.137.21-.205.446-.205.71 0 .187.045.358.134.513.09.15.227.292.41.424.184.127.415.248.693.362.278.114.605.224.983.328.57.164 1.067.347 1.49.547.425.196.778.42 1.061.67.283.25.495.536.636.855.142.314.212.672.212 1.073 0 .42-.087.797-.261 1.135a2.473 2.473 0 0 1-.75.854 3.64 3.64 0 0 1-1.159.54 5.65 5.65 0 0 1-1.498.185c-.495 0-.983-.064-1.463-.192a4.387 4.387 0 0 1-1.3-.58 3.044 3.044 0 0 1-.934-.985c-.23-.397-.346-.86-.346-1.388h1.774c0 .324.056.6.17.827.117.228.28.415.487.56.208.142.448.247.721.315.278.069.575.103.89.103.416 0 .762-.057 1.04-.171.283-.114.495-.274.636-.479.141-.205.212-.442.212-.71Zm5.004-4.832V29h-1.71v-7.396h1.71ZM96.7 19.662c0-.25.085-.458.254-.622.175-.169.415-.253.721-.253.302 0 .54.084.714.253a.818.818 0 0 1 .262.622.81.81 0 0 1-.262.615c-.174.164-.412.246-.714.246-.306 0-.546-.082-.72-.246a.82.82 0 0 1-.255-.615Zm8.588 1.942h1.548v7.19c0 .666-.146 1.231-.439 1.696a2.784 2.784 0 0 1-1.222 1.06c-.524.246-1.129.369-1.817.369-.292 0-.617-.041-.975-.123a4.06 4.06 0 0 1-1.032-.397 2.527 2.527 0 0 1-.827-.704l.798-.97c.274.314.575.544.905.69.33.146.676.219 1.039.219.391 0 .723-.07.997-.212a1.46 1.46 0 0 0 .643-.608c.151-.27.226-.598.226-.985v-5.55l.156-1.675Zm-5.195 3.78v-.144c0-.56.07-1.07.212-1.531.141-.465.344-.864.607-1.196.264-.338.585-.595.962-.773a2.9 2.9 0 0 1 1.279-.273c.495 0 .917.086 1.265.26.354.173.648.421.884.745.235.319.419.701.551 1.148.137.442.238.934.304 1.477v.458a7.174 7.174 0 0 1-.311 1.449 3.93 3.93 0 0 1-.58 1.135c-.24.319-.537.565-.89.738-.349.173-.761.26-1.237.26-.467 0-.888-.094-1.265-.28a2.855 2.855 0 0 1-.962-.787 3.685 3.685 0 0 1-.607-1.19 5.056 5.056 0 0 1-.212-1.496Zm1.703-.144v.144c0 .337.033.651.099.943.071.292.177.55.318.773.146.218.33.391.551.52.226.122.493.184.799.184.401 0 .728-.082.982-.246a1.6 1.6 0 0 0 .594-.663c.142-.283.241-.598.297-.944v-1.237a2.907 2.907 0 0 0-.177-.752 1.978 1.978 0 0 0-.346-.608 1.443 1.443 0 0 0-.551-.41 1.89 1.89 0 0 0-.785-.151c-.306 0-.572.064-.799.191a1.598 1.598 0 0 0-.558.527 2.57 2.57 0 0 0-.318.779 4.069 4.069 0 0 0-.106.95Zm8.496-2.057V29h-1.703v-7.396h1.604l.099 1.579Zm-.304 1.845-.551-.006c.004-.525.08-1.005.226-1.443.151-.437.358-.813.622-1.128a2.73 2.73 0 0 1 .961-.724c.372-.174.787-.26 1.244-.26.368 0 .7.05.997.15.301.096.558.253.77.472.217.219.382.503.495.854.113.347.17.773.17 1.279V29h-1.711v-4.785c0-.356-.054-.636-.163-.841a.89.89 0 0 0-.459-.444c-.198-.091-.445-.137-.742-.137-.292 0-.554.06-.785.178-.231.118-.426.28-.586.485a2.313 2.313 0 0 0-.361.711 2.842 2.842 0 0 0-.127.861Zm12.101-3.424V29h-1.711v-7.396h1.711Zm-1.824-1.942c0-.25.085-.458.255-.622.174-.169.414-.253.721-.253.301 0 .539.084.713.253a.816.816 0 0 1 .262.622.808.808 0 0 1-.262.615c-.174.164-.412.246-.713.246-.307 0-.547-.082-.721-.246a.82.82 0 0 1-.255-.615Zm5.379 3.52V29h-1.703v-7.396h1.604l.099 1.579Zm-.304 1.846-.551-.006c.004-.525.08-1.005.226-1.443.151-.437.358-.813.622-1.128.269-.314.589-.556.961-.724.373-.174.787-.26 1.244-.26.368 0 .7.05.997.15.301.096.558.253.77.472.217.219.382.503.495.854.113.347.17.773.17 1.279V29h-1.711v-4.785c0-.356-.054-.636-.162-.841a.896.896 0 0 0-.46-.444c-.198-.091-.445-.137-.742-.137-.292 0-.554.06-.785.178-.23.118-.426.28-.586.485a2.313 2.313 0 0 0-.361.711 2.873 2.873 0 0 0-.127.861Zm12.355 2.331 1.767-5.756h1.089l-.297 1.723L138.472 29h-.976l.198-1.64Zm-1.039-5.756 1.379 5.784.113 1.613h-1.089l-2.071-7.396h1.668Zm5.549 5.715 1.336-5.715h1.661L143.137 29h-1.089l.156-1.682Zm-1.47-5.715 1.745 5.688.22 1.709h-.976l-1.802-5.68-.297-1.716h1.11Zm7.449 0V29h-1.71v-7.396h1.71Zm-1.823-1.94a.83.83 0 0 1 .254-.623c.175-.169.415-.253.721-.253.302 0 .54.084.714.253a.815.815 0 0 1 .261.622.807.807 0 0 1-.261.615c-.174.164-.412.246-.714.246-.306 0-.546-.082-.721-.246a.822.822 0 0 1-.254-.615Zm7.195 1.94v1.204h-4.311v-1.203h4.311Zm-3.067-1.811h1.703v7.164c0 .228.033.403.099.526a.528.528 0 0 0 .29.24c.123.04.267.061.431.061.118 0 .23-.007.339-.02.109-.014.195-.028.262-.041l.007 1.258a4.517 4.517 0 0 1-.494.109 3.762 3.762 0 0 1-.637.048 2.57 2.57 0 0 1-1.039-.198 1.513 1.513 0 0 1-.707-.664c-.169-.305-.254-.71-.254-1.216v-7.267Zm6.064-1.292V29h-1.696V18.5h1.696Zm-.296 6.528-.552-.006c.005-.51.078-.983.22-1.416a3.57 3.57 0 0 1 .607-1.128c.264-.323.58-.571.947-.745a2.773 2.773 0 0 1 1.223-.266c.377 0 .716.05 1.017.15.307.1.571.262.792.485.222.22.389.506.502.862.118.35.177.78.177 1.285V29h-1.711v-4.765c0-.355-.053-.638-.162-.847a.924.924 0 0 0-.46-.452 1.729 1.729 0 0 0-.741-.143c-.307 0-.578.06-.813.178-.232.118-.425.28-.58.485a2.236 2.236 0 0 0-.354.711 3.194 3.194 0 0 0-.112.861Zm18.334-1.114v3.8c-.146.188-.374.393-.686.616-.306.219-.713.408-1.222.568-.509.159-1.143.239-1.901.239a4.835 4.835 0 0 1-1.774-.315 3.884 3.884 0 0 1-1.393-.936 4.248 4.248 0 0 1-.898-1.497c-.212-.593-.318-1.267-.318-2.024v-.69c0-.752.097-1.422.29-2.01a4.238 4.238 0 0 1 .848-1.504c.367-.41.811-.72 1.329-.93.523-.214 1.114-.32 1.774-.32.844 0 1.541.136 2.092.41.556.268.985.642 1.287 1.12.301.479.492 1.026.572 1.641h-1.738a2.598 2.598 0 0 0-.333-.93 1.657 1.657 0 0 0-.693-.642c-.297-.16-.682-.24-1.159-.24-.409 0-.77.076-1.081.226a2.03 2.03 0 0 0-.778.663 3.175 3.175 0 0 0-.459 1.067 6.04 6.04 0 0 0-.155 1.435v.704c0 .547.059 1.033.177 1.456.122.424.296.782.522 1.073.231.292.512.513.841.664.33.145.702.218 1.117.218.405 0 .737-.032.997-.095.259-.069.464-.148.615-.24.155-.095.275-.186.36-.273v-1.976h-2.141v-1.278h3.908Zm1.47 1.47v-.157c0-.534.081-1.028.241-1.484.159-.46.391-.859.692-1.196a3.127 3.127 0 0 1 1.118-.793 3.737 3.737 0 0 1 1.498-.287c.56 0 1.06.096 1.498.287.443.187.818.451 1.124.793.306.337.54.736.7 1.196.16.456.24.95.24 1.484v.157c0 .533-.08 1.027-.24 1.483-.16.456-.394.855-.7 1.197a3.23 3.23 0 0 1-1.117.792c-.438.187-.935.28-1.492.28a3.84 3.84 0 0 1-1.505-.28 3.258 3.258 0 0 1-1.117-.793 3.505 3.505 0 0 1-.699-1.196 4.448 4.448 0 0 1-.241-1.483Zm1.704-.157v.157c0 .332.035.647.106.943.07.296.182.556.332.78.151.223.344.398.58.526.235.127.516.191.84.191.317 0 .59-.064.82-.191a1.62 1.62 0 0 0 .58-.527c.151-.223.262-.483.332-.779.076-.296.114-.61.114-.943v-.157c0-.329-.038-.639-.114-.93a2.323 2.323 0 0 0-.339-.786 1.606 1.606 0 0 0-.579-.534 1.643 1.643 0 0 0-.827-.198c-.321 0-.599.066-.835.198-.23.128-.421.306-.572.534-.15.228-.262.49-.332.786a3.92 3.92 0 0 0-.106.93Zm6.509.157v-.157c0-.534.081-1.028.241-1.484.16-.46.391-.859.693-1.196a3.115 3.115 0 0 1 1.117-.793 3.733 3.733 0 0 1 1.498-.287c.56 0 1.061.096 1.498.287.444.187.818.451 1.124.793.306.337.54.736.7 1.196.16.456.24.95.24 1.484v.157c0 .533-.08 1.027-.24 1.483-.16.456-.394.855-.7 1.197a3.23 3.23 0 0 1-1.117.792c-.438.187-.934.28-1.491.28-.561 0-1.063-.093-1.505-.28a3.23 3.23 0 0 1-1.117-.793 3.507 3.507 0 0 1-.7-1.196 4.448 4.448 0 0 1-.241-1.483Zm1.704-.157v.157c0 .332.035.647.106.943.071.296.182.556.333.78.151.223.343.398.579.526.235.127.516.191.841.191.316 0 .589-.064.82-.191.236-.128.428-.303.579-.527.151-.223.262-.483.333-.779.076-.296.113-.61.113-.943v-.157c0-.329-.037-.639-.113-.93a2.345 2.345 0 0 0-.34-.786 1.59 1.59 0 0 0-.579-.534 1.64 1.64 0 0 0-.827-.198c-.321 0-.599.066-.835.198-.23.128-.42.306-.571.534a2.44 2.44 0 0 0-.333.786 3.92 3.92 0 0 0-.106.93Zm11.734-3.623h1.548v7.19c0 .666-.147 1.231-.439 1.696-.292.465-.7.818-1.223 1.06-.523.246-1.128.369-1.817.369a4.41 4.41 0 0 1-.975-.123 4.089 4.089 0 0 1-1.032-.397 2.527 2.527 0 0 1-.827-.704l.799-.97c.273.314.575.544.905.69.33.146.676.219 1.039.219.391 0 .723-.07.996-.212.278-.137.493-.34.643-.608.151-.27.227-.598.227-.985v-5.55l.156-1.675Zm-5.196 3.78v-.144c0-.56.071-1.07.212-1.531.142-.465.344-.864.608-1.196a2.63 2.63 0 0 1 .962-.773 2.897 2.897 0 0 1 1.279-.273c.495 0 .917.086 1.265.26.354.173.647.421.883.745.236.319.42.701.551 1.148.138.442.239.934.304 1.477v.458a7.175 7.175 0 0 1-.31 1.449 3.954 3.954 0 0 1-.58 1.135c-.24.319-.537.565-.89.738-.349.173-.761.26-1.238.26-.466 0-.888-.094-1.264-.28a2.855 2.855 0 0 1-.962-.787 3.686 3.686 0 0 1-.608-1.19 5.09 5.09 0 0 1-.212-1.496Zm1.704-.144v.144c0 .337.033.651.098.943.072.292.177.55.319.773.145.218.33.391.551.52.226.122.492.184.799.184.4 0 .728-.082.982-.246.259-.164.457-.386.594-.663a3.3 3.3 0 0 0 .297-.944v-1.237a2.907 2.907 0 0 0-.177-.752 1.98 1.98 0 0 0-.347-.608 1.428 1.428 0 0 0-.551-.41c-.221-.1-.483-.151-.785-.151a1.6 1.6 0 0 0-.798.191 1.598 1.598 0 0 0-.558.527 2.572 2.572 0 0 0-.319.779c-.07.296-.105.613-.105.95Zm8.63-6.74V29h-1.711V18.5h1.711Zm5.238 10.637a4.205 4.205 0 0 1-1.535-.267 3.402 3.402 0 0 1-1.159-.759 3.363 3.363 0 0 1-.728-1.141 3.893 3.893 0 0 1-.254-1.415v-.274c0-.578.087-1.103.261-1.572.175-.47.417-.87.728-1.203a3.131 3.131 0 0 1 1.104-.773 3.528 3.528 0 0 1 1.378-.266c.546 0 1.025.089 1.434.266.411.178.75.429 1.019.752.272.32.475.7.606 1.142.138.442.206.93.206 1.463v.704h-5.909V24.61h4.227v-.13a2.242 2.242 0 0 0-.184-.834 1.43 1.43 0 0 0-.502-.628c-.226-.16-.528-.24-.904-.24-.284 0-.536.06-.757.178-.216.114-.398.28-.544.5-.146.218-.26.482-.339.792-.076.305-.114.65-.114 1.032v.274c0 .323.046.624.134.902.095.273.232.513.411.718.179.205.396.367.65.485.255.114.544.171.869.171.41 0 .775-.08 1.096-.24.32-.159.599-.384.834-.676l.898.84a3.49 3.49 0 0 1-.643.67 3.27 3.27 0 0 1-.969.514 3.97 3.97 0 0 1-1.314.198Z" fill="#1F1F1F"/><path d="M263.655 0H5.476C2.488 0 .066 1.969.066 4.397v40.206C.065 47.03 2.487 49 5.475 49h258.179c2.988 0 5.41-1.969 5.41-4.397V4.397c0-2.428-2.422-4.397-5.41-4.397Z" stroke="#747775"/></g><defs><clipPath id="a"><path fill="#fff" d="M0 0h269v49H0z"/></clipPath></defs></svg>