<svg width="21" height="23" viewBox="0 0 21 23" fill="none" xmlns="http://www.w3.org/2000/svg">
<g id="Group 5">
<path id="Vector" d="M3.25349 9.11198C3.25218 8.17517 3.43622 7.24735 3.79501 6.38197C4.1538 5.51659 4.68026 4.73074 5.34407 4.0697C6.00787 3.40865 6.7959 2.88546 7.66276 2.53027C8.52963 2.17508 9.4582 1.9949 10.395 2.00011C14.3065 2.02974 17.4377 5.27947 17.4377 9.20088V9.90219C17.4377 13.4384 18.1785 15.4929 18.8305 16.619C18.8997 16.7389 18.9362 16.8749 18.9363 17.0134C18.9365 17.1518 18.9002 17.2879 18.8312 17.408C18.7621 17.528 18.6628 17.6278 18.543 17.6974C18.4233 17.7669 18.2874 17.8038 18.1489 17.8043H2.54231C2.40383 17.8038 2.26792 17.7669 2.14818 17.6974C2.02844 17.6278 1.92908 17.528 1.86005 17.408C1.79103 17.2879 1.75476 17.1518 1.75488 17.0134C1.75501 16.8749 1.79151 16.7389 1.86075 16.619C2.51267 15.4929 3.25349 13.4384 3.25349 9.90219V9.11198Z" stroke="black" stroke-width="2.5" stroke-linecap="round" stroke-linejoin="round"/>
<path id="Vector_2" d="M7.18555 17.8044V18.5947C7.18555 19.433 7.51856 20.2369 8.11133 20.8297C8.7041 21.4225 9.50807 21.7555 10.3464 21.7555C11.1847 21.7555 11.9887 21.4225 12.5814 20.8297C13.1742 20.2369 13.5072 19.433 13.5072 18.5947V17.8044" stroke="black" stroke-width="2.5" stroke-linecap="round" stroke-linejoin="round"/>
</g>
</svg>
