<svg width="18" height="18" viewBox="0 0 18 18" fill="none" xmlns="http://www.w3.org/2000/svg">
<path d="M15.5997 6.79995H11.1997V2.39995C11.1997 1.81647 10.9679 1.2569 10.5553 0.844316C10.1428 0.431736 9.58318 0.199951 8.99971 0.199951C8.41623 0.199951 7.85665 0.431736 7.44407 0.844316C7.03149 1.2569 6.79971 1.81647 6.79971 2.39995L6.87781 6.79995H2.39971C1.81623 6.79995 1.25665 7.03174 0.844072 7.44432C0.431492 7.8569 0.199707 8.41648 0.199707 8.99995C0.199707 9.58343 0.431492 10.143 0.844072 10.5556C1.25665 10.9682 1.81623 11.2 2.39971 11.2L6.87781 11.1219L6.79971 15.6C6.79971 16.1834 7.03149 16.743 7.44407 17.1556C7.85665 17.5682 8.41623 17.8 8.99971 17.8C9.58318 17.8 10.1428 17.5682 10.5553 17.1556C10.9679 16.743 11.1997 16.1834 11.1997 15.6V11.1219L15.5997 11.2C16.1832 11.2 16.7428 10.9682 17.1553 10.5556C17.5679 10.143 17.7997 9.58343 17.7997 8.99995C17.7997 8.41648 17.5679 7.8569 17.1553 7.44432C16.7428 7.03174 16.1832 6.79995 15.5997 6.79995Z" fill="white"/>
</svg>
