<svg width="24" height="24" viewBox="0 0 24 24" fill="none" xmlns="http://www.w3.org/2000/svg">
<path d="M9.33333 0L9.18519 0.75L8.62222 3.49038C7.71852 3.83654 6.9037 4.32332 6.16296 4.90385L3.40741 3.98077L2.66667 3.75L2.28148 4.41346L0.385185 7.58654L0 8.25L0.562963 8.74038L2.6963 10.5577C2.61852 11.03 2.51852 11.5024 2.51852 12C2.51852 12.4976 2.61852 12.97 2.6963 13.4423L0.562963 15.2596L0 15.75L0.385185 16.4135L2.28148 19.5865L2.66667 20.25L3.40741 20.0192L6.16296 19.0962C6.9037 19.6767 7.71852 20.1635 8.62222 20.5096L9.18519 23.25L9.33333 24H14.6667L14.8148 23.25L15.3778 20.5096C16.2815 20.1635 17.0963 19.6767 17.837 19.0962L20.5926 20.0192L21.3333 20.25L21.7185 19.5865L23.6148 16.4135L24 15.75L23.437 15.2596L21.3037 13.4423C21.3815 12.97 21.4815 12.4976 21.4815 12C21.4815 11.5024 21.3815 11.03 21.3037 10.5577L23.437 8.74038L24 8.25L23.6148 7.58654L21.7185 4.41346L21.3333 3.75L20.5926 3.98077L17.837 4.90385C17.0963 4.32332 16.2815 3.83654 15.3778 3.49038L14.8148 0.75L14.6667 0H9.33333ZM10.8741 1.84615H13.1259L13.6 4.24038L13.7185 4.78846L14.2519 4.96154C15.3296 5.28966 16.3074 5.84495 17.1259 6.57692L17.5407 6.95192L18.0741 6.77885L20.4741 5.97115L21.6 7.84615L19.7037 9.49038L19.2593 9.83654L19.4074 10.3846C19.5296 10.9111 19.5852 11.4483 19.5852 12C19.5852 12.5517 19.5296 13.0889 19.4074 13.6154L19.2889 14.1635L19.7037 14.5096L21.6 16.1538L20.4741 18.0288L18.0741 17.2212L17.5407 17.0481L17.1259 17.4231C16.3074 18.155 15.3296 18.7103 14.2519 19.0385L13.7185 19.2115L13.6 19.7596L13.1259 22.1538H10.8741L10.4 19.7596L10.2815 19.2115L9.74815 19.0385C8.67037 18.7103 7.69259 18.155 6.87407 17.4231L6.45926 17.0481L5.92593 17.2212L3.52593 18.0288L2.4 16.1538L4.2963 14.5096L4.74074 14.1635L4.59259 13.6154C4.47037 13.0889 4.41481 12.5517 4.41481 12C4.41481 11.4483 4.47037 10.9111 4.59259 10.3846L4.74074 9.83654L4.2963 9.49038L2.4 7.84615L3.52593 5.97115L5.92593 6.77885L6.45926 6.95192L6.87407 6.57692C7.69259 5.84495 8.67037 5.28966 9.74815 4.96154L10.2815 4.78846L10.4 4.24038L10.8741 1.84615ZM12 7.38462C9.39259 7.38462 7.25926 9.46154 7.25926 12C7.25926 14.5385 9.39259 16.6154 12 16.6154C14.6074 16.6154 16.7407 14.5385 16.7407 12C16.7407 9.46154 14.6074 7.38462 12 7.38462ZM12 9.23077C13.5815 9.23077 14.8444 10.4603 14.8444 12C14.8444 13.5397 13.5815 14.7692 12 14.7692C10.4185 14.7692 9.15556 13.5397 9.15556 12C9.15556 10.4603 10.4185 9.23077 12 9.23077Z" fill="black"/>
</svg>
