<svg width="22" height="22" viewBox="0 0 22 22" fill="none" xmlns="http://www.w3.org/2000/svg">
<circle cx="11" cy="11" r="11" fill="#E5E7EA"/>
<path d="M17.8508 11.8889C18.0863 11.6532 18.2185 11.3336 18.2185 11.0004C18.2185 10.6672 18.0863 10.3477 17.8508 10.1119L13.1098 5.36838C12.8739 5.13251 12.554 5 12.2204 5C11.8869 5 11.5669 5.13251 11.3311 5.36838C11.0952 5.60426 10.9627 5.92417 10.9627 6.25774C10.9627 6.59131 11.0952 6.91123 11.3311 7.1471L13.9262 9.74308H4.25729C3.92383 9.74308 3.60402 9.87555 3.36822 10.1113C3.13243 10.3471 2.99996 10.667 2.99996 11.0004C2.99996 11.3339 3.13243 11.6537 3.36822 11.8895C3.60402 12.1253 3.92383 12.2578 4.25729 12.2578H13.9262L11.3311 14.8529C11.2143 14.9697 11.1216 15.1083 11.0584 15.2609C10.9952 15.4135 10.9627 15.5771 10.9627 15.7423C10.9627 15.9074 10.9952 16.071 11.0584 16.2236C11.1216 16.3762 11.2143 16.5148 11.3311 16.6316C11.4479 16.7484 11.5865 16.8411 11.7391 16.9043C11.8917 16.9675 12.0553 17 12.2204 17C12.3856 17 12.5492 16.9675 12.7018 16.9043C12.8543 16.8411 12.993 16.7484 13.1098 16.6316L17.8508 11.8889Z" fill="#6D717F"/>
</svg>
