<svg width="16" height="16" viewBox="0 0 16 16" fill="none" xmlns="http://www.w3.org/2000/svg">
<path d="M11.1819 1.63604L7.99989 4.81802L4.81791 1.63604C4.39596 1.21408 3.82366 0.977029 3.22692 0.977029C2.63019 0.977029 2.05789 1.21408 1.63593 1.63604C1.21398 2.058 0.976924 2.63029 0.976924 3.22703C0.976924 3.82377 1.21398 4.39606 1.63593 4.81802L4.87439 7.94352L1.63593 11.182C1.21398 11.6039 0.976924 12.1762 0.976924 12.773C0.976924 13.3697 1.21398 13.942 1.63593 14.364C2.05789 14.7859 2.63019 15.023 3.22692 15.023C3.82366 15.023 4.39596 14.7859 4.81791 14.364L7.99989 11.069L11.1819 14.364C11.6038 14.7859 12.1761 15.023 12.7729 15.023C13.3696 15.023 13.9419 14.7859 14.3639 14.364C14.7858 13.942 15.0229 13.3697 15.0229 12.773C15.0229 12.1762 14.7858 11.6039 14.3639 11.182L11.1254 7.94352L14.3639 4.81802C14.7858 4.39606 15.0229 3.82377 15.0229 3.22703C15.0229 2.63029 14.7858 2.058 14.3639 1.63604C13.9419 1.21408 13.3696 0.97703 12.7729 0.97703C12.1761 0.97703 11.6038 1.21408 11.1819 1.63604Z" fill="white"/>
</svg>
