<svg xmlns="http://www.w3.org/2000/svg" width="24" height="24" viewBox="0 0 24 24" fill="none">
  <path fill-rule="evenodd" clip-rule="evenodd" d="M4.22206 5.36404C5.23365 4.35279 6.57313 3.73606 7.99917 3.62495C9.42521 3.51385 10.8441 3.91567 12.0001 4.75804C13.2213 3.87446 14.7303 3.48275 16.2271 3.66077C17.7239 3.83878 19.0989 4.57349 20.0789 5.71885C21.0588 6.86421 21.5719 8.33636 21.5162 9.84269C21.4604 11.349 20.84 12.7792 19.7781 13.849L14.1211 19.506C13.5585 20.0685 12.7956 20.3844 12.0001 20.3844C11.2046 20.3844 10.4416 20.0685 9.87906 19.506L4.22206 13.85C3.09693 12.7248 2.46484 11.1988 2.46484 9.60754C2.46484 8.01631 3.09693 6.48924 4.22206 5.36404Z" fill="#FA7500"/>
</svg>