<svg xmlns="http://www.w3.org/2000/svg" width="24" height="24" viewBox="0 0 24 24" fill="none">
  <path d="M11.9978 5.99384L11.411 5.56623C10.4476 4.86422 9.26517 4.52934 8.07673 4.62193C6.88835 4.71452 5.7721 5.22845 4.92907 6.07112C4.92902 6.07117 4.92897 6.07122 4.92893 6.07127M11.9978 5.99384L4.92893 6.07127M11.9978 5.99384L12.5861 5.56822C13.6039 4.83186 14.8615 4.50541 16.1089 4.65377C17.3563 4.80213 18.5022 5.41442 19.3189 6.36895C20.1356 7.32348 20.5632 8.55036 20.5167 9.80571C20.4703 11.0604 19.9537 12.2518 19.0696 13.1432C19.0691 13.1437 19.0687 13.1441 19.0682 13.1446L13.4139 18.7988C13.4139 18.7989 13.4139 18.7989 13.4138 18.7989C13.0388 19.1738 12.5302 19.3844 11.9999 19.3844C11.4696 19.3844 10.961 19.1738 10.586 18.7989C10.586 18.7989 10.586 18.7988 10.5859 18.7988L4.92907 13.143M11.9978 5.99384L4.92907 13.143M4.92893 6.07127C3.99153 7.0088 3.46472 8.2814 3.46472 9.60754C3.46472 10.9335 3.99143 12.2052 4.92898 13.1429M4.92893 6.07127L4.92898 13.1429M4.92898 13.1429L4.92907 13.143M4.92898 13.1429L4.92907 13.143" fill="white" stroke="#FA7500" stroke-width="2"/>
</svg>